<!-- Generated by IcoMoon.io -->
<svg version="1.1" xmlns="http://www.w3.org/2000/svg" width="32" height="32" viewBox="0 0 32 32">
<title>arrow-right-circle</title>
<path d="M2 16c0 7.732 6.268 14 14 14s14-6.268 14-14v0c0-7.732-6.268-14-14-14s-14 6.268-14 14v0zM32 16c0 8.837-7.163 16-16 16s-16-7.163-16-16v0c0-8.837 7.163-16 16-16s16 7.163 16 16v0zM9 15c-0.552 0-1 0.448-1 1s0.448 1 1 1v0h11.586l-4.294 4.292c-0.181 0.181-0.293 0.431-0.293 0.708 0 0.553 0.448 1.001 1.001 1.001 0.276 0 0.527-0.112 0.708-0.293v0l6-6c0.181-0.181 0.294-0.431 0.294-0.708s-0.112-0.527-0.294-0.708l-6-6c-0.181-0.181-0.431-0.293-0.708-0.293-0.553 0-1.001 0.448-1.001 1.001 0 0.277 0.112 0.527 0.293 0.708v0l4.294 4.292h-11.586z"></path>
</svg>
